<?xml version="1.0" encoding="UTF-8" standalone="no"?>
<!-- Created with Inkscape (http://www.inkscape.org/) -->

<svg
   xmlns:dc="http://purl.org/dc/elements/1.1/"
   xmlns:cc="http://creativecommons.org/ns#"
   xmlns:rdf="http://www.w3.org/1999/02/22-rdf-syntax-ns#"
   xmlns:svg="http://www.w3.org/2000/svg"
   xmlns="http://www.w3.org/2000/svg"
   xmlns:sodipodi="http://sodipodi.sourceforge.net/DTD/sodipodi-0.dtd"
   xmlns:inkscape="http://www.inkscape.org/namespaces/inkscape"
   width="16.912169mm"
   height="11.368324mm"
   viewBox="0 0 59.925006 40.281464"
   id="svg8024"
   version="1.1"
   inkscape:version="0.91 r13725"
   sodipodi:docname="Cloud.svg">
  <defs
     id="defs8026" />
  <sodipodi:namedview
     id="base"
     pagecolor="#ffffff"
     bordercolor="#666666"
     borderopacity="1.0"
     inkscape:pageopacity="0.0"
     inkscape:pageshadow="2"
     inkscape:zoom="0.35"
     inkscape:cx="-221.84993"
     inkscape:cy="108.72026"
     inkscape:document-units="px"
     inkscape:current-layer="layer1"
     showgrid="false"
     fit-margin-top="0"
     fit-margin-left="0"
     fit-margin-right="0"
     fit-margin-bottom="0"
     inkscape:window-width="698"
     inkscape:window-height="437"
     inkscape:window-x="751"
     inkscape:window-y="196"
     inkscape:window-maximized="0" />
  <metadata
     id="metadata8029">
    <rdf:RDF>
      <cc:Work
         rdf:about="">
        <dc:format>image/svg+xml</dc:format>
        <dc:type
           rdf:resource="http://purl.org/dc/dcmitype/StillImage" />
        <dc:title></dc:title>
      </cc:Work>
    </rdf:RDF>
  </metadata>
  <g
     inkscape:label="Layer 1"
     inkscape:groupmode="layer"
     id="layer1"
     transform="translate(-115.42136,-600.801)">
    <g
       id="g5889"
       transform="matrix(0.92237729,0,0,-0.99200766,-1037.1386,536.60835)"
       inkscape:export-filename="C:\Users\Dread\Google 雲端硬碟\圖片\g5889.png"
       inkscape:export-xdpi="90"
       inkscape:export-ydpi="90">
      <g
         id="g7066">
        <g
           id="g7071"
           transform="translate(1282.0377,-101.25483)">
          <path
             d="m 0,0 -12.181,16.242 8.121,0 0,12.182 8.121,0 0,-12.182 8.121,0 L 0,0 Z m 20.303,20.303 c 0,8.968 -7.273,16.242 -16.242,16.242 -6.083,0 -11.388,-3.348 -14.165,-8.295 -0.673,0.109 -1.372,0.174 -2.077,0.174 -5.497,0 -10.152,-3.641 -11.662,-8.653 -5.001,-1.531 -8.641,-6.169 -8.641,-11.65 0,-6.728 5.429,-12.182 12.221,-12.182 l 40.526,0 c 6.749,0 12.221,5.473 12.221,12.182 0,6.709 -5.409,12.162 -12.181,12.182"
             style="fill:#000000;fill-opacity:1;fill-rule:nonzero;stroke:none"
             id="path5891"
             inkscape:connector-curvature="0" />
          <rect
             style="fill:#000000;fill-rule:evenodd;stroke:#000000;stroke-width:0.80000001px;stroke-linecap:butt;stroke-linejoin:miter;stroke-opacity:1"
             id="rect7046"
             width="20.859348"
             height="20.68578"
             x="-6.4296741"
             y="-30.013462"
             transform="scale(1,-1)" />
          <rect
             style="fill:#000000;fill-rule:evenodd;stroke:#000000;stroke-width:0.8952561px;stroke-linecap:butt;stroke-linejoin:miter;stroke-opacity:1"
             id="rect7046-2"
             width="23.621235"
             height="22.876238"
             x="-14.276567"
             y="-22.350843"
             transform="scale(1,-1)" />
        </g>
      </g>
    </g>
  </g>
</svg>
